<svg width="48" height="48" viewBox="0 0 48 48" fill="none" xmlns="http://www.w3.org/2000/svg">
<rect x="0.5" y="0.5" width="47" height="47" rx="9.5" fill="#2ED2E9" stroke="#21B1B1"/>
<g filter="url(#filter0_d_711_18)">
<path d="M19.84 36.82H8.535V35.665C10.2383 35.665 11.44 35.5133 12.14 35.21C12.7933 34.93 13.12 34.44 13.12 33.74V16.24C13.12 15.7033 12.98 15.3417 12.7 15.155C12.4433 14.945 11.9767 14.84 11.3 14.84H8.43V13.72C9.17667 13.65 9.865 13.545 10.495 13.405C11.1483 13.2417 11.7433 13.055 12.28 12.845C13.0967 12.5417 14.1233 12.0167 15.36 11.27V33.74C15.36 34.1833 15.4767 34.545 15.71 34.825C15.9667 35.0817 16.4333 35.28 17.11 35.42C17.4367 35.49 17.8217 35.5483 18.265 35.595C18.7317 35.6417 19.2567 35.665 19.84 35.665V36.82ZM39.4449 28.945C39.4449 31.0217 38.8383 32.8767 37.6249 34.51C37.0416 35.35 36.2133 36.0267 35.1399 36.54C34.0899 37.0533 33.0049 37.31 31.8849 37.31C29.4816 37.31 27.6266 36.6917 26.3199 35.455C25.6666 34.895 25.1766 34.2883 24.8499 33.635C24.5233 32.9583 24.3599 32.1767 24.3599 31.29C24.3599 30.2167 24.8849 29.68 25.9349 29.68C26.9849 29.68 27.5099 30.24 27.5099 31.36C27.5099 31.4767 27.4983 31.6283 27.4749 31.815C27.4749 32.0017 27.4516 32.1767 27.4049 32.34C27.3583 32.4567 27.3233 32.55 27.2999 32.62C27.2999 32.69 27.2999 32.76 27.2999 32.83C27.2999 33.53 27.5099 34.125 27.9299 34.615C28.6066 35.5017 29.8083 35.945 31.5349 35.945C32.8883 35.945 34.0433 35.455 34.9999 34.475C35.6999 33.7283 36.2016 32.9117 36.5049 32.025C36.8316 31.115 36.9949 30.065 36.9949 28.875C36.9949 27.9417 36.9016 27.09 36.7149 26.32C36.5283 25.5267 36.2016 24.8383 35.7349 24.255C35.1983 23.5783 34.5799 23.0533 33.8799 22.68C33.2033 22.2833 32.4216 22.085 31.5349 22.085C30.6249 22.085 29.6683 22.365 28.6649 22.925C27.6149 23.5317 26.7983 24.29 26.2149 25.2C26.0283 25.13 25.8416 25.06 25.6549 24.99C25.4683 24.92 25.2699 24.85 25.0599 24.78L26.3199 11.76H38.4299C38.3133 12.1567 38.2083 12.5533 38.1149 12.95C38.0216 13.3467 37.9166 13.7433 37.7999 14.14H27.6149C27.4516 15.54 27.2999 16.9517 27.1599 18.375C27.0199 19.7983 26.8683 21.2217 26.7049 22.645C28.2683 21.3383 30.0066 20.685 31.9199 20.685C34.2766 20.685 36.1666 21.5367 37.5899 23.24C38.8266 24.6867 39.4449 26.5883 39.4449 28.945Z" fill="#260A97"/>
</g>
<defs>
<filter id="filter0_d_711_18" x="4.42999" y="11.27" width="39.0149" height="34.04" filterUnits="userSpaceOnUse" color-interpolation-filters="sRGB">
<feFlood flood-opacity="0" result="BackgroundImageFix"/>
<feColorMatrix in="SourceAlpha" type="matrix" values="0 0 0 0 0 0 0 0 0 0 0 0 0 0 0 0 0 0 127 0" result="hardAlpha"/>
<feOffset dy="4"/>
<feGaussianBlur stdDeviation="2"/>
<feComposite in2="hardAlpha" operator="out"/>
<feColorMatrix type="matrix" values="0 0 0 0 0 0 0 0 0 0 0 0 0 0 0 0 0 0 0.25 0"/>
<feBlend mode="normal" in2="BackgroundImageFix" result="effect1_dropShadow_711_18"/>
<feBlend mode="normal" in="SourceGraphic" in2="effect1_dropShadow_711_18" result="shape"/>
</filter>
</defs>
</svg>
